<?xml version="1.0" encoding="utf-8"?>
<!-- Generator: Adobe Illustrator 22.1.0, SVG Export Plug-In . SVG Version: 6.00 Build 0)  -->
<svg version="1.1" id="Main" xmlns="http://www.w3.org/2000/svg" xmlns:xlink="http://www.w3.org/1999/xlink" x="0px" y="0px"
	 viewBox="0 0 634.6 192.6" style="enable-background:new 0 0 634.6 192.6;" xml:space="preserve">
<style type="text/css">
	.st0{display:none;fill:#FFFFFF;}
	.st1{fill:#4C6672;}
	.st2{fill:none;stroke:#FFFFFF;stroke-width:2.5944;stroke-miterlimit:10;}
	.st3{fill:none;stroke:#FFFFFF;stroke-width:3.3158;stroke-miterlimit:10;}
	.st4{fill:#7EBAC8;}
	.st5{enable-background:new    ;}
	.st6{fill:#A5CFD3;}
</style>
<path id="card" class="st0" d="M602.8,192.6H34.6C15.6,192.6,0,177.1,0,158V34.5C0,15.5,15.5,0,34.5,0h568.3
	c19,0,34.6,15.5,34.6,34.6v123.5C637.3,177.1,621.8,192.6,602.8,192.6z"/>
<g id="Logo">
	<circle id="background" class="st1" cx="95.1" cy="97.4" r="85"/>
	<g id="aroundme_logo">
		<ellipse class="st2" cx="95.7" cy="127" rx="30" ry="8.4"/>
		<ellipse class="st3" cx="95.7" cy="127" rx="52.5" ry="14.7"/>
		<path class="st4" d="M95.7,44.6c-15.7,0-28.5,12.8-28.5,28.5c0,4.7,1.2,9.4,3.4,13.5l23.5,42.5c0.3,0.6,0.9,0.9,1.6,0.9
			s1.2-0.4,1.6-0.9l23.5-42.6c2.2-4.1,3.4-8.8,3.4-13.5C124.2,57.4,111.4,44.6,95.7,44.6z M95.7,87.3c-7.9,0-14.2-6.4-14.2-14.2
			s6.4-14.2,14.2-14.2s14.2,6.4,14.2,14.2S103.5,87.3,95.7,87.3z"/>
	</g>
</g>
<g class="st5">
	<path class="st4" d="M230.1,123.1v-7.1H230c-1.4,2.4-3.4,4.4-5.9,6c-2.5,1.6-5.5,2.5-8.9,2.5c-6.6,0-12.2-2.3-16.7-6.8
		c-4.6-4.5-6.9-10.1-6.9-16.9c0-6.7,2.3-12.3,6.9-16.8c4.6-4.5,10.2-6.8,16.7-6.8c6.1,0,11,2.6,14.9,7.8h0.2v-6.5h10.9v44.6H230.1z
		 M230.1,100.7c0-3.8-1.3-7-4-9.7c-2.6-2.7-5.9-4-9.6-4c-3.8,0-7,1.3-9.6,4c-2.7,2.7-4,5.9-4,9.6c0,3.8,1.3,7.1,4,9.8
		c2.7,2.7,5.9,4,9.6,4c3.8,0,7-1.3,9.7-4S230.1,104.5,230.1,100.7z"/>
	<path class="st4" d="M272.5,77.2c2.4,0,4.6,0.4,6.8,1.1l-3.5,9.9c-1.2-0.4-2.3-0.5-3.3-0.5c-3.1,0-5.8,1.1-8,3.4
		c-2.2,2.3-3.3,5-3.3,8.2v23.9h-10.9V78.5h10.9v6.6C264.4,79.8,268.1,77.2,272.5,77.2z"/>
	<path class="st4" d="M330,100.7c0,6.7-2.5,12.3-7.4,16.8c-5,4.5-10.8,6.8-17.6,6.8c-6.7,0-12.6-2.3-17.6-6.8
		c-5-4.5-7.5-10.2-7.5-16.8c0-6.6,2.5-12.2,7.5-16.8c5-4.5,10.8-6.8,17.6-6.8c6.7,0,12.6,2.3,17.6,6.8
		C327.5,88.5,330,94.1,330,100.7z M318.6,100.7c0-3.8-1.3-7-4-9.7c-2.6-2.7-5.9-4-9.6-4c-3.8,0-7,1.3-9.6,4c-2.7,2.7-4,5.9-4,9.6
		c0,3.8,1.3,7.1,4,9.8c2.7,2.7,5.9,4,9.6,4c3.8,0,7-1.3,9.7-4S318.6,104.5,318.6,100.7z"/>
	<path class="st4" d="M368.1,78.5H379v44.6h-10.9v-6.8h-0.2c-1.2,2.4-2.9,4.3-5.1,5.8c-2.2,1.5-4.8,2.3-7.9,2.3
		c-5.1,0-9.3-1.8-12.5-5.3c-3.2-3.5-4.8-8.1-4.8-13.7v-27h10.9v26.2c0,2.7,0.9,5.1,2.8,7c1.9,1.9,4.2,2.9,6.9,2.9c2.7,0,5-1,6.9-2.9
		c1.9-1.9,2.8-4.2,2.8-7V78.5z"/>
	<path class="st4" d="M399.2,123.1h-10.9V78.5h10.9v6.8h0.2c2.8-5.4,7.1-8.2,12.9-8.2c5.1,0,9.3,1.8,12.5,5.3
		c3.2,3.5,4.8,8.1,4.8,13.7v27h-10.9V96.9c0-2.7-1-5.1-2.9-7c-1.9-1.9-4.2-2.9-6.8-2.9c-2.7,0-5,1-6.9,2.9c-1.9,1.9-2.8,4.2-2.8,7
		V123.1z"/>
	<path class="st4" d="M475.9,123.1v-7.1h-0.2c-1.4,2.4-3.4,4.4-5.9,6c-2.5,1.6-5.5,2.5-8.9,2.5c-6.6,0-12.2-2.3-16.7-6.8
		c-4.6-4.5-6.9-10.1-6.9-16.9c0-6.7,2.3-12.3,6.9-16.8c4.6-4.5,10.2-6.8,16.7-6.8c6.1,0,11,2.6,14.9,7.8h0.2V65.3h10.9v57.8H475.9z
		 M475.9,100.7c0-3.8-1.3-7-4-9.7c-2.6-2.7-5.9-4-9.6-4c-3.8,0-7,1.3-9.6,4c-2.7,2.7-4,5.9-4,9.6c0,3.8,1.3,7.1,4,9.8
		c2.7,2.7,5.9,4,9.6,4c3.8,0,7-1.3,9.7-4S475.9,104.5,475.9,100.7z"/>
</g>
<g class="st5">
	<path class="st6" d="M515.7,123.1h-10.9V78.5h10.9V85h0.2c2.8-5.2,6.5-7.9,11-7.9c3,0,5.6,0.8,7.6,2.4c2,1.6,3.6,3.6,4.6,6.1
		c1-2.2,2.6-4.2,5-5.9s4.9-2.6,7.8-2.6c5.2,0,9.3,1.6,12.3,4.8s4.5,7.6,4.5,13v28h-10.9V94.9c0-2.2-0.7-4.1-2.2-5.6
		s-3.3-2.3-5.5-2.3c-2.2,0-4,0.8-5.5,2.3s-2.3,3.4-2.3,5.6v28.2h-10.9V94.9c0-2.2-0.7-4.1-2.2-5.6s-3.3-2.3-5.5-2.3
		c-2.2,0-4,0.8-5.5,2.3s-2.3,3.4-2.3,5.6V123.1z"/>
	<path class="st6" d="M624.6,100.7c0,1.5-0.2,3.1-0.6,4.9h-35.9c0.8,2.7,2.4,4.9,4.7,6.6c2.4,1.7,5,2.6,7.8,2.6
		c2.5,0,4.9-0.6,7.2-1.8s4-2.8,5.2-4.7l7.4,6.5c-2.3,2.9-5.1,5.2-8.6,6.9c-3.5,1.7-7.2,2.5-11.2,2.5c-6.8,0-12.5-2.3-17.2-6.8
		c-4.7-4.5-7.1-10.2-7.1-16.8c0-6.7,2.4-12.3,7.1-16.8s10.5-6.8,17.2-6.8c6.6,0,12.3,2.3,16.9,6.9
		C622.2,88.6,624.6,94.2,624.6,100.7z M588.1,96.4h24.7c-0.7-2.9-2.1-5.2-4.4-7.1c-2.3-1.8-4.9-2.8-7.9-2.8c-2.9,0-5.6,0.9-7.9,2.8
		C590.3,91.2,588.8,93.6,588.1,96.4z"/>
</g>
</svg>
