<?xml version="1.0" encoding="utf-8"?>
<!-- Generator: Adobe Illustrator 22.1.0, SVG Export Plug-In . SVG Version: 6.00 Build 0)  -->
<svg version="1.1" id="Main" xmlns="http://www.w3.org/2000/svg" xmlns:xlink="http://www.w3.org/1999/xlink" x="0px" y="0px"
	 viewBox="0 0 480.9 192.6" style="enable-background:new 0 0 480.9 192.6;" xml:space="preserve">
<style type="text/css">
	.st0{display:none;fill:#FFFFFF;}
	.st1{fill:#4C6672;}
	.st2{fill:#FFFFFF;}
	.st3{fill:#7EBAC8;}
	.st13{font-family:'Kaleko105-Bold';}
	.st14{font-size:77px;}
</style>
<path id="card" class="st0" d="M602.8,192.6H34.6c-19,0-34.6-15.5-34.6-34.6V34.5C0,15.5,15.5,0,34.5,0h568.3
	c19,0,34.6,15.5,34.6,34.6v123.5C637.3,177.1,621.8,192.6,602.8,192.6z"/>
<g id="Logo">
	<circle id="background" class="st1" cx="95.1" cy="97.4" r="85"/>
	<g id="expert_logo">
		<path id="octopus" class="st2" d="M140.7,92.2c-5-0.8-5.5,3-6.2,6.7c-0.9,4.9-5,8-9.9,8.1c-5,0.1-9.5-2.9-10-7.8
			c-0.4-3.6,0.8-7.5,1.7-11.1c1.2-4.8,3.5-9.3,4-14.1c1-10.4-3.2-18.8-12.4-24.1c-9-5.1-18.2-4.7-26.6,1.4
			c-8.6,6.3-12.2,15.1-10,25.6c1,4.6,3.1,9,4.8,13.4c3.4,9.1-1.4,17.2-10.1,16.6c-5.1-0.3-8.3-3.3-9.6-9.6c-0.6-3.1-1.8-5.6-5.2-5.2
			c-3.6,0.4-4.5,3.3-4.1,6.6c0.1,1.2,0.3,2.4,0.7,3.6c2.6,8.5,8.7,12.7,18,14.6c-5.9,7.4-4.6,15.6-4.7,23.6c0,3.2,0.9,5.6,4.5,5.8
			c3.9,0.2,5-2.5,5.1-5.8c0.1-3.4,0-6.8,0.1-10.2c0.2-6.3,4.1-10.3,10.1-10.2c5.8,0.1,9.8,4.2,10,10.4c0.1,3.4,0,6.8,0,10.2
			c0,3.2,1.1,5.5,4.7,5.6c3.6,0.1,4.8-2.3,4.9-5.4c0.1-3.7-0.1-7.4,0.1-11.1c0.2-5.6,4.2-9.6,9.7-9.7c5.7-0.1,10,3.9,10.3,9.6
			c0.2,3.5,0,7.1,0,10.7c0,3.3,1,5.9,4.9,5.9c3.9-0.1,4.7-2.8,4.7-6.1c0-8,0.9-16.1-4.8-23.3c9.5-1.9,15.8-6.4,18.2-15.4
			C145,96.5,144.1,92.8,140.7,92.2z M88.2,99.5c-2.7,0-4.9-2.8-4.9-6.4s2.2-6.4,4.9-6.4s4.9,2.8,4.9,6.4S90.9,99.5,88.2,99.5z
			 M103.7,99.1c-2.7,0-4.9-2.8-4.9-6.4c0-3.5,2.2-6.4,4.9-6.4s4.9,2.8,4.9,6.4S106.4,99.1,103.7,99.1L103.7,99.1z"/>
		<g>
			<g>
				<path class="st3" d="M114.8,92.1h-3c-0.4-3.8-3.7-6.5-7.5-6.2c-3.3,0.3-5.9,2.9-6.2,6.2h-4.3c-0.4-3.8-3.7-6.5-7.5-6.2
					c-3.3,0.3-5.9,2.9-6.2,6.2h-3c-0.3,0-0.6,0.2-0.7,0.6c-0.1,0.4,0.3,0.8,0.7,0.8h3c0.4,3.8,3.7,6.5,7.5,6.2
					c3.3-0.3,5.9-2.9,6.2-6.2h4.3c0.4,3.8,3.7,6.5,7.5,6.2c3.3-0.3,5.9-2.9,6.2-6.2h3c0.4,0,0.7-0.4,0.7-0.8
					C115.4,92.3,115.1,92.1,114.8,92.1z M87,98.3L87,98.3c-3.1,0-5.7-2.6-5.5-5.8c0.1-2.8,2.4-5.1,5.3-5.2c3.2-0.1,5.8,2.4,5.8,5.5
					C92.5,95.8,90,98.3,87,98.3z M105,98.3L105,98.3c-3.1,0-5.7-2.6-5.5-5.8c0.1-2.8,2.4-5.1,5.3-5.2c3.2-0.1,5.8,2.4,5.8,5.5
					C110.5,95.8,108,98.3,105,98.3z"/>
			</g>
		</g>
		<ellipse class="st2" cx="86.9" cy="92.8" rx="5.6" ry="5.5"/>
		<ellipse class="st2" cx="105" cy="92.7" rx="5.6" ry="5.5"/>
		<g>
			<g>
				<path class="st3" d="M87.6,88.4L87.6,88.4c-0.4,0-0.7,0.3-0.7,0.7s0.3,0.7,0.7,0.7c1.2,0,2.2,1,2.2,2.2c0,0.4,0.3,0.7,0.7,0.7
					s0.7-0.3,0.7-0.7C91.2,90.1,89.6,88.4,87.6,88.4z"/>
			</g>
		</g>
		<g>
			<g>
				<path class="st3" d="M105.6,88.4L105.6,88.4c-0.4,0-0.7,0.3-0.7,0.7s0.3,0.7,0.7,0.7c1.2,0,2.2,1,2.2,2.2c0,0.4,0.3,0.7,0.7,0.7
					s0.7-0.3,0.7-0.7C109.2,90.1,107.6,88.4,105.6,88.4z"/>
			</g>
		</g>
	</g>
</g>
<text id="text" transform="matrix(1 0 0 1 188.3956 123.0713)" class="st3 st13 st14">expert</text>
</svg>
