<?xml version="1.0" encoding="utf-8"?>
<!-- Generator: Adobe Illustrator 22.1.0, SVG Export Plug-In . SVG Version: 6.00 Build 0)  -->
<svg version="1.1" id="Main" xmlns="http://www.w3.org/2000/svg" xmlns:xlink="http://www.w3.org/1999/xlink" x="0px" y="0px"
	 viewBox="0 0 480.9 192.6" style="enable-background:new 0 0 480.9 192.6;" xml:space="preserve">
<style type="text/css">
	.st0{display:none;fill:#FFFFFF;}
	.st1{fill:#4C6672;}
	.st2{fill:#FFFFFF;}
	.st3{fill:#7EBAC8;}
	.st4{enable-background:new    ;}
</style>
<path id="card" class="st0" d="M602.8,192.6H34.6C15.6,192.6,0,177.1,0,158V34.5C0,15.5,15.5,0,34.5,0h568.3
	c19,0,34.6,15.5,34.6,34.6v123.5C637.3,177.1,621.8,192.6,602.8,192.6z"/>
<circle id="background" class="st1" cx="95.1" cy="97.4" r="85"/>
<path id="octopus" class="st2" d="M140.7,92.2c-5-0.8-5.5,3-6.2,6.7c-0.9,4.9-5,8-9.9,8.1c-5,0.1-9.5-2.9-10-7.8
	c-0.4-3.6,0.8-7.5,1.7-11.1c1.2-4.8,3.5-9.3,4-14.1c1-10.4-3.2-18.8-12.4-24.1c-9-5.1-18.2-4.7-26.6,1.4c-8.6,6.3-12.2,15.1-10,25.6
	c1,4.6,3.1,9,4.8,13.4c3.4,9.1-1.4,17.2-10.1,16.6c-5.1-0.3-8.3-3.3-9.6-9.6c-0.6-3.1-1.8-5.6-5.2-5.2c-3.6,0.4-4.5,3.3-4.1,6.6
	c0.1,1.2,0.3,2.4,0.7,3.6c2.6,8.5,8.7,12.7,18,14.6c-5.9,7.4-4.6,15.6-4.7,23.6c0,3.2,0.9,5.6,4.5,5.8c3.9,0.2,5-2.5,5.1-5.8
	c0.1-3.4,0-6.8,0.1-10.2c0.2-6.3,4.1-10.3,10.1-10.2c5.8,0.1,9.8,4.2,10,10.4c0.1,3.4,0,6.8,0,10.2c0,3.2,1.1,5.5,4.7,5.6
	s4.8-2.3,4.9-5.4c0.1-3.7-0.1-7.4,0.1-11.1c0.2-5.6,4.2-9.6,9.7-9.7c5.7-0.1,10,3.9,10.3,9.6c0.2,3.5,0,7.1,0,10.7
	c0,3.3,1,5.9,4.9,5.9c3.9-0.1,4.7-2.8,4.7-6.1c0-8,0.9-16.1-4.8-23.3c9.5-1.9,15.8-6.4,18.2-15.4C145,96.5,144.1,92.8,140.7,92.2z"
	/>
<g>
	<g>
		<path class="st3" d="M128.2,89.8h-5.1c-0.7-6.5-6.3-11.1-12.8-10.6c-5.7,0.5-10.1,5-10.6,10.6h-7.4c-0.7-6.5-6.3-11.1-12.8-10.6
			c-5.7,0.5-10.1,5-10.6,10.6h-5.1c-0.5,0-1,0.3-1.2,1s0.5,1.4,1.2,1.4h5.1c0.7,6.5,6.3,11.1,12.8,10.6c5.7-0.5,10.1-5,10.6-10.6
			h7.4c0.7,6.5,6.3,11.1,12.8,10.6c5.7-0.5,10.1-5,10.6-10.6h5.1c0.7,0,1.2-0.7,1.2-1.4C129.3,90.1,128.8,89.8,128.2,89.8z
			 M80.6,100.4L80.6,100.4c-5.3,0-9.8-4.5-9.4-9.9c0.2-4.8,4.1-8.7,9.1-8.9c5.5-0.2,9.9,4.1,9.9,9.4C90,96.1,85.8,100.4,80.6,100.4z
			 M111.5,100.4L111.5,100.4c-5.3,0-9.8-4.5-9.4-9.9c0.2-4.8,4.1-8.7,9.1-8.9c5.5-0.2,9.9,4.1,9.9,9.4
			C120.9,96.1,116.6,100.4,111.5,100.4z"/>
	</g>
	<ellipse class="st2" cx="80.5" cy="91" rx="9.6" ry="9.4"/>
	<ellipse class="st2" cx="111.5" cy="90.8" rx="9.6" ry="9.4"/>
	<g>
		<g>
			<path class="st3" d="M81.7,83.5L81.7,83.5c-0.7,0-1.2,0.5-1.2,1.2s0.5,1.2,1.2,1.2c2.1,0,3.8,1.7,3.8,3.8c0,0.7,0.5,1.2,1.2,1.2
				s1.2-0.5,1.2-1.2C87.8,86.4,85.1,83.5,81.7,83.5z"/>
		</g>
	</g>
	<g>
		<g>
			<path class="st3" d="M112.5,83.5L112.5,83.5c-0.7,0-1.2,0.5-1.2,1.2s0.5,1.2,1.2,1.2c2.1,0,3.8,1.7,3.8,3.8
				c0,0.7,0.5,1.2,1.2,1.2s1.2-0.5,1.2-1.2C118.7,86.4,115.9,83.5,112.5,83.5z"/>
		</g>
	</g>
</g>
<g class="st4">
	<path class="st3" d="M239.8,100.7c0,1.5-0.2,3.1-0.6,4.9h-35.9c0.8,2.7,2.4,4.9,4.7,6.6c2.4,1.7,5,2.6,7.8,2.6
		c2.5,0,4.9-0.6,7.2-1.8c2.3-1.2,4-2.8,5.2-4.7l7.4,6.5c-2.3,2.9-5.1,5.2-8.6,6.9c-3.5,1.7-7.2,2.5-11.2,2.5
		c-6.8,0-12.5-2.3-17.2-6.8c-4.7-4.5-7.1-10.2-7.1-16.8c0-6.7,2.4-12.3,7.1-16.8s10.5-6.8,17.2-6.8c6.6,0,12.3,2.3,16.9,6.9
		C237.4,88.6,239.8,94.2,239.8,100.7z M203.3,96.4h24.7c-0.7-2.9-2.1-5.2-4.4-7.1c-2.3-1.8-4.9-2.8-7.9-2.8c-2.9,0-5.6,0.9-7.9,2.8
		C205.5,91.2,204,93.6,203.3,96.4z"/>
	<path class="st3" d="M258.7,100.7l-16.2-22.3h13l9.6,14h0.2l9.6-14h13l-16.2,22.3l16.2,22.3h-13l-9.6-14.1h-0.2l-9.6,14.1h-13
		L258.7,100.7z"/>
	<path class="st3" d="M304.5,78.5v7.2h0.2c1.4-2.4,3.4-4.4,5.9-6c2.5-1.7,5.5-2.5,8.9-2.5c6.6,0,12.2,2.3,16.8,6.8
		s6.9,10.1,6.9,16.9c0,6.7-2.3,12.3-6.9,16.8c-4.6,4.5-10.2,6.8-16.8,6.8c-6.1,0-11-2.6-14.9-7.8h-0.2v19.6h-10.9V78.5H304.5z
		 M304.5,100.8c0,3.8,1.3,7,4,9.7c2.6,2.7,5.9,4,9.6,4c3.8,0,7-1.3,9.6-4c2.7-2.7,4-5.9,4-9.7c0-3.8-1.3-7.1-4-9.7
		c-2.7-2.7-5.9-4-9.6-4c-3.8,0-7,1.3-9.7,4C305.9,93.8,304.5,97,304.5,100.8z"/>
	<path class="st3" d="M397.6,100.7c0,1.5-0.2,3.1-0.6,4.9h-35.9c0.8,2.7,2.4,4.9,4.7,6.6c2.4,1.7,5,2.6,7.8,2.6
		c2.5,0,4.9-0.6,7.2-1.8s4-2.8,5.2-4.7l7.4,6.5c-2.3,2.9-5.1,5.2-8.6,6.9c-3.5,1.7-7.2,2.5-11.2,2.5c-6.8,0-12.5-2.3-17.2-6.8
		c-4.7-4.5-7.1-10.2-7.1-16.8c0-6.7,2.4-12.3,7.1-16.8s10.5-6.8,17.2-6.8c6.6,0,12.3,2.3,16.9,6.9S397.6,94.2,397.6,100.7z
		 M361.2,96.4h24.7c-0.7-2.9-2.1-5.2-4.4-7.1c-2.3-1.8-4.9-2.8-7.9-2.8c-2.9,0-5.6,0.9-7.9,2.8S361.8,93.6,361.2,96.4z"/>
	<path class="st3" d="M427.5,77.2c2.4,0,4.6,0.4,6.8,1.1l-3.5,9.9c-1.2-0.4-2.3-0.5-3.3-0.5c-3.1,0-5.8,1.1-8,3.4
		c-2.2,2.3-3.3,5-3.3,8.2v23.9h-10.9V78.5h10.9v6.6C419.3,79.8,423.1,77.2,427.5,77.2z"/>
	<path class="st3" d="M438.3,87.4v-8.9h4.1V68.4h10.9v10.1h7.6v8.9h-7.6v23.9c0,0.9,0.4,1.7,1.1,2.4c0.7,0.7,1.6,1,2.6,1
		c1.3,0,2.2-0.2,2.9-0.6l2.1,8.6c-2.2,1.1-4.9,1.7-8.1,1.7c-3.4,0-6.2-1.1-8.3-3.3s-3.2-5-3.2-8.5V87.4H438.3z"/>
</g>
</svg>
