<?xml version="1.0" encoding="utf-8"?>
<!-- Generator: Adobe Illustrator 26.1.0, SVG Export Plug-In . SVG Version: 6.00 Build 0)  -->
<svg version="1.1" id="Layer_1" xmlns="http://www.w3.org/2000/svg" xmlns:xlink="http://www.w3.org/1999/xlink" x="0px" y="0px"
	 viewBox="0 0 32 32" style="enable-background:new 0 0 32 32;" xml:space="preserve">
<style type="text/css">
	.st0{fill:#00ADCE;}
	.st1{fill:#002830;}
</style>
<g id="Logo">
	<path class="st0" d="M23.4,11c0.3,0.4,0.5,0.8,0.7,1.2l0.1,0.1l6.3-2.8l-1.7-2.8L23.4,11L23.4,11z"/>
	<path class="st0" d="M24.3,20.2c-0.2,0.4-0.4,0.8-0.7,1.2l-0.1,0.1l5.6,4l1.6-2.8L24.4,20L24.3,20.2z"/>
	<path class="st1" d="M8.5,14.7l-8.8,1.1V17l8.8,0.9V14.7z"/>
	<path class="st0" d="M7.4,12.3c0.2-0.4,0.4-0.8,0.7-1.2L8.1,11l-5.6-4L1,9.8l6.3,2.6L7.4,12.3z"/>
	<path class="st0" d="M21.2,23.9c-0.4,0.3-0.8,0.5-1.2,0.7l-0.1,0.1l2.8,6.1l2.8-1.6L21.2,23.9L21.2,23.9z"/>
	<path class="st0" d="M10.5,8.7c0.4-0.3,0.8-0.5,1.2-0.7l0.1-0.1L9,1.6L6.3,3.2L10.5,8.7L10.5,8.7z"/>
	<path class="st0" d="M8.1,21.6c-0.3-0.4-0.5-0.8-0.7-1.2l-0.1-0.1L1.1,23l1.7,2.8l5.4-4L8.1,21.6z"/>
	<path class="st0" d="M10.6,24l-0.1-0.1l-4,5.4L9.3,31l2.6-6.2l-0.1-0.1C11.4,24.5,11,24.3,10.6,24z"/>
	<path class="st1" d="M15.4,32.3h1.2l0.9-8.7h-3.2L15.4,32.3z"/>
	<path class="st1" d="M23.2,14.6v3.2l8.8-1.1v-1.2L23.2,14.6z"/>
	<path class="st1" d="M16.3,0.3h-1.2L14.2,9h3.2L16.3,0.3z"/>
	<path class="st0" d="M21.1,8.7l4.1-5.6l-2.8-1.6l-2.7,6.3l0.1,0.1C20.2,8.1,20.6,8.3,21.1,8.7L21.1,8.7z"/>
</g>
</svg>
