<?xml version="1.0" encoding="utf-8"?>
<!-- Generator: Adobe Illustrator 26.1.0, SVG Export Plug-In . SVG Version: 6.00 Build 0)  -->
<svg version="1.1" id="Layer_1" xmlns="http://www.w3.org/2000/svg" xmlns:xlink="http://www.w3.org/1999/xlink" x="0px" y="0px"
	 viewBox="0 0 96 96" style="enable-background:new 0 0 96 96;" xml:space="preserve">
<style type="text/css">
	.st0{fill:#FFFFFF;}
</style>
<path class="st0" d="M69.8,32.4c0.9,1.2,1.5,2.4,2,3.6l0.3,0.3l18.3-8.4l-4.9-8.4L69.8,32.4L69.8,32.4z"/>
<path class="st0" d="M72.4,60c-0.6,1.2-1.2,2.4-2,3.6l-0.3,0.3l16.3,12l4.7-8.4l-18.3-8.1L72.4,60z"/>
<path class="st0" d="M26.5,43.5L0.8,46.8v3.6l25.6,2.7V43.5z"/>
<path class="st0" d="M23.3,36.3c0.6-1.2,1.2-2.4,2-3.6v-0.3L9,20.4l-4.4,8.4L23,36.6L23.3,36.3z"/>
<path class="st0" d="M63.4,71.1c-1.2,0.9-2.3,1.5-3.5,2.1l-0.3,0.3l8.1,18.3l8.1-4.8L63.4,71.1L63.4,71.1z"/>
<path class="st0" d="M32.3,25.5c1.2-0.9,2.3-1.5,3.5-2.1l0.3-0.3L27.9,4.2L20.1,9L32.3,25.5L32.3,25.5z"/>
<path class="st0" d="M25.3,64.2c-0.9-1.2-1.5-2.4-2-3.6L23,60.3l-18,8.1l4.9,8.4l15.7-12L25.3,64.2z"/>
<path class="st0" d="M32.6,71.4l-0.3-0.3L20.6,87.3l8.1,5.1l7.6-18.6l-0.3-0.3C34.9,72.9,33.7,72.3,32.6,71.4z"/>
<path class="st0" d="M46.5,96.3H50l2.6-26.1h-9.3L46.5,96.3z"/>
<path class="st0" d="M69.2,43.2v9.6l25.6-3.3v-3.6L69.2,43.2z"/>
<path class="st0" d="M49.2,0.3h-3.5L43,26.4h9.3L49.2,0.3z"/>
<path class="st0" d="M63.1,25.5L75.1,8.7l-8.1-4.8l-7.9,18.9l0.3,0.3C60.5,23.7,61.7,24.3,63.1,25.5L63.1,25.5z"/>
</svg>
