<?xml version="1.0" encoding="utf-8"?>
<!-- Generator: Adobe Illustrator 26.1.0, SVG Export Plug-In . SVG Version: 6.00 Build 0)  -->
<svg version="1.1" id="Main" xmlns="http://www.w3.org/2000/svg" xmlns:xlink="http://www.w3.org/1999/xlink" x="0px" y="0px"
	 viewBox="0 0 520.6 192.6" style="enable-background:new 0 0 520.6 192.6;" xml:space="preserve">
<style type="text/css">
	.st0{fill:#04ADCE;}
	.st1{fill:none;stroke:#FFFFFF;stroke-width:3.0621;stroke-linecap:round;stroke-miterlimit:10;stroke-dasharray:7.145;}
	.st2{fill:#002830;}
	.st3{font-family:'UxumGrotesque-Bold';}
	.st4{font-size:90px;}
</style>
<g id="Logo">
	<circle id="background" class="st0" cx="95.1" cy="97.4" r="85"/>
	<g id="journey_logo">
		<path class="st1" d="M56,156.9c0,0,88.8-16.4,80.9-37.4c-5.4-14.4-59.5-6.1-62-15.6C72.1,93.4,127,86.5,127,86.5"/>
		<path class="st2" d="M127.5,32.4c-10.2,0-18.5,8.3-18.5,18.5c0,3.1,0.8,6.1,2.2,8.8l15.3,27.6c0.2,0.4,0.6,0.6,1,0.6
			s0.8-0.2,1-0.6l15.3-27.6c1.4-2.7,2.2-5.7,2.2-8.8C146,40.7,137.7,32.4,127.5,32.4z M127.5,60.2c-5.1,0-9.2-4.1-9.2-9.2
			s4.1-9.2,9.2-9.2c5.1,0,9.2,4.1,9.2,9.2S132.6,60.2,127.5,60.2z"/>
		<path class="st2" d="M55.7,103.1c-10.2,0-18.5,8.3-18.5,18.5c0,3.1,0.8,6.1,2.2,8.8L54.7,158c0.2,0.4,0.6,0.6,1,0.6s0.8-0.2,1-0.6
			L72,130.4c1.4-2.7,2.2-5.7,2.2-8.8C74.2,111.4,65.9,103.1,55.7,103.1z M55.7,130.8c-5.1,0-9.2-4.1-9.2-9.2s4.1-9.2,9.2-9.2
			s9.2,4.1,9.2,9.2S60.8,130.8,55.7,130.8z"/>
	</g>
</g>
<text transform="matrix(1 0 0 1 187.1002 127.4001)" class="st0 st3 st4">journey</text>
</svg>
