<?xml version="1.0" encoding="utf-8"?>
<!-- Generator: Adobe Illustrator 22.1.0, SVG Export Plug-In . SVG Version: 6.00 Build 0)  -->
<svg version="1.1" id="Main" xmlns="http://www.w3.org/2000/svg" xmlns:xlink="http://www.w3.org/1999/xlink" x="0px" y="0px"
	 viewBox="0 0 520.6 192.6" style="enable-background:new 0 0 520.6 192.6;" xml:space="preserve">
<style type="text/css">
	.st0{fill:#4C6672;}
	.st1{fill:none;stroke:#FFFFFF;stroke-width:3.0621;stroke-linecap:round;stroke-miterlimit:10;stroke-dasharray:7.145;}
	.st2{fill:#7EBAC8;}
	.st3{enable-background:new    ;}
</style>
<g id="Logo">
	<circle id="background" class="st0" cx="95.1" cy="97.4" r="85"/>
	<g id="journey_logo">
		<path class="st1" d="M56,156.9c0,0,88.8-16.4,80.9-37.4c-5.4-14.4-59.5-6.1-62-15.6C72.1,93.4,127,86.5,127,86.5"/>
		<path class="st2" d="M127.5,32.4c-10.2,0-18.5,8.3-18.5,18.5c0,3.1,0.8,6.1,2.2,8.8l15.3,27.6c0.2,0.4,0.6,0.6,1,0.6
			s0.8-0.2,1-0.6l15.3-27.6c1.4-2.7,2.2-5.7,2.2-8.8C146,40.7,137.7,32.4,127.5,32.4z M127.5,60.2c-5.1,0-9.2-4.1-9.2-9.2
			s4.1-9.2,9.2-9.2c5.1,0,9.2,4.1,9.2,9.2S132.6,60.2,127.5,60.2z"/>
		<path class="st2" d="M55.7,103.1c-10.2,0-18.5,8.3-18.5,18.5c0,3.1,0.8,6.1,2.2,8.8L54.7,158c0.2,0.4,0.6,0.6,1,0.6s0.8-0.2,1-0.6
			L72,130.4c1.4-2.7,2.2-5.7,2.2-8.8C74.2,111.4,65.9,103.1,55.7,103.1z M55.7,130.8c-5.1,0-9.2-4.1-9.2-9.2s4.1-9.2,9.2-9.2
			s9.2,4.1,9.2,9.2S60.8,130.8,55.7,130.8z"/>
	</g>
</g>
<g class="st3">
	<path class="st2" d="M208,78.5v47.3c0,3.4-1.2,6.3-3.7,8.5c-2.5,2.2-5.5,3.3-9.2,3.3c-2.7,0-5.2-0.6-7.3-1.7l2.7-8.8
		c0.6,0.4,1.6,0.6,2.9,0.6c1,0,1.8-0.3,2.5-1c0.7-0.6,1.1-1.4,1.1-2.4V78.5H208z M198,73.3c-1.3-1.3-1.9-2.8-1.9-4.5
		c0-1.8,0.6-3.3,1.9-4.5c1.3-1.3,2.8-1.9,4.5-1.9s3.3,0.6,4.5,1.9c1.3,1.3,1.9,2.8,1.9,4.5c0,1.8-0.6,3.3-1.9,4.5
		c-1.3,1.3-2.8,1.9-4.5,1.9S199.3,74.5,198,73.3z"/>
	<path class="st2" d="M265.8,100.7c0,6.7-2.5,12.3-7.4,16.8c-5,4.5-10.8,6.8-17.6,6.8c-6.7,0-12.6-2.3-17.6-6.8
		c-5-4.5-7.5-10.2-7.5-16.8c0-6.6,2.5-12.2,7.5-16.8c5-4.5,10.8-6.8,17.6-6.8c6.7,0,12.6,2.3,17.6,6.8
		C263.3,88.5,265.8,94.1,265.8,100.7z M254.4,100.7c0-3.8-1.3-7-4-9.7c-2.6-2.7-5.9-4-9.6-4c-3.8,0-7,1.3-9.6,4
		c-2.7,2.7-4,5.9-4,9.6c0,3.8,1.3,7.1,4,9.8c2.7,2.7,5.9,4,9.6,4c3.8,0,7-1.3,9.7-4S254.4,104.5,254.4,100.7z"/>
	<path class="st2" d="M303.9,78.5h10.9v44.6h-10.9v-6.8h-0.2c-1.2,2.4-2.9,4.3-5.1,5.8c-2.2,1.5-4.8,2.3-7.9,2.3
		c-5.1,0-9.3-1.8-12.5-5.3c-3.2-3.5-4.8-8.1-4.8-13.7v-27h10.9v26.2c0,2.7,0.9,5.1,2.8,7c1.9,1.9,4.2,2.9,6.9,2.9c2.7,0,5-1,6.9-2.9
		c1.9-1.9,2.8-4.2,2.8-7V78.5z"/>
	<path class="st2" d="M346.3,77.2c2.4,0,4.6,0.4,6.8,1.1l-3.5,9.9c-1.2-0.4-2.3-0.5-3.3-0.5c-3.1,0-5.8,1.1-8,3.4
		c-2.2,2.3-3.3,5-3.3,8.2v23.9H324V78.5H335v6.6C338.1,79.8,341.9,77.2,346.3,77.2z"/>
	<path class="st2" d="M369.2,123.1h-10.9V78.5h10.9v6.8h0.2c2.8-5.4,7.1-8.2,12.9-8.2c5.1,0,9.3,1.8,12.5,5.3
		c3.2,3.5,4.8,8.1,4.8,13.7v27h-10.9V96.9c0-2.7-1-5.1-2.9-7c-1.9-1.9-4.2-2.9-6.8-2.9c-2.7,0-5,1-6.9,2.9c-1.9,1.9-2.8,4.2-2.8,7
		V123.1z"/>
	<path class="st2" d="M455.6,100.7c0,1.5-0.2,3.1-0.6,4.9h-35.9c0.8,2.7,2.4,4.9,4.7,6.6s5,2.6,7.8,2.6c2.5,0,4.9-0.6,7.2-1.8
		c2.3-1.2,4-2.8,5.2-4.7l7.4,6.5c-2.3,2.9-5.1,5.2-8.6,6.9c-3.5,1.7-7.2,2.5-11.2,2.5c-6.8,0-12.5-2.3-17.2-6.8
		c-4.7-4.5-7.1-10.2-7.1-16.8c0-6.7,2.4-12.3,7.1-16.8s10.5-6.8,17.2-6.8c6.6,0,12.3,2.3,16.9,6.9
		C453.3,88.6,455.6,94.2,455.6,100.7z M419.2,96.4h24.7c-0.7-2.9-2.1-5.2-4.4-7.1c-2.3-1.8-4.9-2.8-7.9-2.8c-2.9,0-5.6,0.9-7.9,2.8
		C421.4,91.2,419.8,93.6,419.2,96.4z"/>
	<path class="st2" d="M502.7,78.5l-22.3,57.8h-11.2l5.5-14.2l-16.9-43.6H469l11.2,29.7h0.2l11.1-29.7H502.7z"/>
</g>
</svg>
