<?xml version="1.0" encoding="utf-8"?>
<!-- Generator: Adobe Illustrator 26.1.0, SVG Export Plug-In . SVG Version: 6.00 Build 0)  -->
<svg version="1.1" id="Layer_1" xmlns="http://www.w3.org/2000/svg" xmlns:xlink="http://www.w3.org/1999/xlink" x="0px" y="0px"
	 viewBox="0 0 92 88.1" style="enable-background:new 0 0 92 88.1;" xml:space="preserve">
<style type="text/css">
	.st0{fill-rule:evenodd;clip-rule:evenodd;fill:#FFFFFF;}
	.st1{fill:#FFFFFF;}
</style>
<path class="st0" d="M4.6,4.3C8.1,0.1,14.2-1.6,19.3,2L82,46.3V16h8v45.7L14.7,8.5c-1-0.7-2.6-0.7-3.9,0.9l0,0l0,0
	c-0.3,0.3-0.5,0.7-0.6,1.1C10,11,9.9,11.4,10,11.8c0.1,0.4,0.2,0.8,0.4,1.2c0.2,0.4,0.5,0.7,0.9,0.9l0,0l73.9,53.7
	c1.3,0.9,2.3,2,3.1,3.3c0.8,1.3,1.3,2.8,1.5,4.3c0.2,1.5,0.1,3.1-0.4,4.6c-0.4,1.5-1.2,2.8-2.2,4c-3.5,4.1-9.6,5.8-14.7,2.3l0,0
	L9.9,40.9v31.2h-8V25.2l75.3,54.4c1.1,0.7,2.6,0.7,3.9-0.9l3.1,2.6l-3-2.6c0.3-0.3,0.5-0.7,0.6-1.1c0.1-0.4,0.2-0.8,0.1-1.2
	c-0.1-0.4-0.2-0.8-0.4-1.2c-0.2-0.4-0.5-0.7-0.9-0.9l0,0l-74-53.7c-1.3-0.9-2.3-2-3.1-3.3c-0.8-1.3-1.3-2.8-1.5-4.3
	C1.8,11.3,2,9.7,2.4,8.3C2.9,6.8,3.6,5.4,4.6,4.3z"/>
<path class="st1" d="M6,88c3.3,0,6-2.7,6-6s-2.7-6-6-6s-6,2.7-6,6S2.7,88,6,88z"/>
<path class="st1" d="M86,12c3.3,0,6-2.7,6-6s-2.7-6-6-6s-6,2.7-6,6S82.7,12,86,12z"/>
</svg>
