<?xml version="1.0" encoding="utf-8"?>
<!-- Generator: Adobe Illustrator 22.1.0, SVG Export Plug-In . SVG Version: 6.00 Build 0)  -->
<svg version="1.1" id="Main" xmlns="http://www.w3.org/2000/svg" xmlns:xlink="http://www.w3.org/1999/xlink" x="0px" y="0px"
	 viewBox="0 0 585 192.6" style="enable-background:new 0 0 585 192.6;" xml:space="preserve">
<style type="text/css">
	.st0{display:none;fill:#FFFFFF;}
	.st1{fill:#4C6672;}
	.st2{fill:#7EBAC8;}
	.st3{fill:#FFFFFF;}
	.st4{fill:#FDFFFF;}
</style>
<path id="card" class="st0" d="M602.8,192.6H34.6c-19,0-34.6-15.5-34.6-34.6V34.5C0,15.5,15.5,0,34.5,0h568.3
	c19,0,34.6,15.5,34.6,34.6v123.5C637.3,177.1,621.8,192.6,602.8,192.6z"/>
<g id="Logo">
	<circle id="background" class="st1" cx="95.1" cy="97.4" r="85"/>
	<g id="schedule_logo">
		<path class="st2" d="M150.1,99.7V63.1c0-1.9-1.6-3.5-3.5-3.5H40.6c-1.9,0-3.5,1.6-3.5,3.5v70.5c0,1.9,1.6,3.5,3.5,3.5h58.5
			c5.8,8.7,15.9,14.4,27.2,14.1c16.8-0.5,30.5-14.2,30.8-31.1C157.3,112.4,154.6,105.3,150.1,99.7z M44.2,128V68.7
			c0-1.2,0.9-2.1,2.1-2.1H141c1.2,0,2.1,0.9,2.1,2.1v24.6c-5-3.4-11.1-5.3-17.6-5.3c-11.1,0-20.9,5.8-26.5,14.4
			c-3.4,6.3-3.3,6.7-3.3,6.7c-0.8,2.2-1.3,4.6-1.6,7c0,0-0.2,0.1-0.3,3.5c0,2.1,0.3,3.5,0.3,3.5c0.3,2.4,0.8,4.8,1.6,7H46.3
			C45.1,130.2,44.2,129.2,44.2,128z M126.3,144.2c-14.2,0.5-25.9-11.2-25.4-25.4c0.4-12.9,10.9-23.4,23.8-23.8
			c14.2-0.5,25.9,11.2,25.4,25.4C149.7,133.3,139.2,143.8,126.3,144.2z"/>
		<path class="st3" d="M139.6,116.1H129v-10.5c0-1.9-1.6-3.5-3.5-3.5s-3.5,1.6-3.5,3.5v14.1c0,1.9,1.6,3.5,3.5,3.5h14.1
			c1.9,0,3.5-1.6,3.5-3.5S141.5,116.1,139.6,116.1z"/>
		<path class="st3" d="M69,73.9h-7c-1.9,0-3.5,1.6-3.5,3.5s1.6,3.5,3.5,3.5h7c1.9,0,3.5-1.6,3.5-3.5S70.9,73.9,69,73.9z"/>
		<path class="st3" d="M69,88h-7c-1.9,0-3.5,1.6-3.5,3.5S60,95,62,95h7c1.9,0,3.5-1.6,3.5-3.5S70.9,88,69,88z"/>
		<path class="st3" d="M69,102h-7c-1.9,0-3.5,1.6-3.5,3.5s1.6,3.5,3.5,3.5h7c1.9,0,3.5-1.6,3.5-3.5S70.9,102,69,102z"/>
		<path class="st3" d="M90.3,80.9h7c1.9,0,3.5-1.6,3.5-3.5s-1.6-3.5-3.5-3.5h-7c-1.9,0-3.5,1.6-3.5,3.5S88.4,80.9,90.3,80.9z"/>
		<path class="st3" d="M90.3,95h7c1.9,0,3.5-1.6,3.5-3.5S99.3,88,97.4,88h-7c-1.9,0-3.5,1.6-3.5,3.5S88.4,95,90.3,95z"/>
		<path class="st3" d="M69,116.1h-7c-1.9,0-3.5,1.6-3.5,3.5s1.6,3.5,3.5,3.5h7c1.9,0,3.5-1.6,3.5-3.5S70.9,116.1,69,116.1z"/>
		<path class="st4" d="M118.5,80.9h7c1.9,0,3.5-1.6,3.5-3.5s-1.6-3.5-3.5-3.5h-7c-1.9,0-3.5,1.6-3.5,3.5S116.5,80.9,118.5,80.9z"/>
		<path class="st3" d="M90.3,109.1h5.3l1.5-3.1l1.8-3.5c-0.5-0.2-1-0.4-1.6-0.4h-7c-1.9,0-3.5,1.6-3.5,3.5S88.4,109.1,90.3,109.1z"
			/>
		<path class="st3" d="M90.3,123.1H94c-0.2-0.9-0.2-6.3,0-7h-3.7c-1.9,0-3.5,1.6-3.5,3.5S88.4,123.1,90.3,123.1z"/>
	</g>
</g>
<g>
	<path class="st2" d="M210.4,114.7c2.4,0.2,4.4-0.2,5.8-1c1.5-0.8,2.2-1.9,2.2-3.3c0-1.3-0.5-2.3-1.4-3.1c-1-0.8-2.2-1.3-3.7-1.6
		c-1.5-0.3-3.2-0.6-5.1-0.8c-1.8-0.2-3.7-0.6-5.5-1.1c-1.9-0.5-3.6-1.2-5.1-2c-1.5-0.9-2.8-2.2-3.7-4.1c-1-1.9-1.4-4.1-1.4-6.8
		c0-4.3,1.6-7.6,4.9-10.1c3.3-2.4,7.6-3.7,13.1-3.7c6.7,0,12.6,1.8,17.8,5.3l-4.8,8.2c-3.3-2.5-7.6-3.8-13-3.8c-4.6,0-6.9,1.3-6.9,4
		c0,1.3,0.5,2.3,1.5,3c1,0.7,2.2,1.2,3.7,1.5c1.5,0.3,3.2,0.5,5.1,0.7c1.9,0.2,3.8,0.6,5.6,1.1s3.6,1.2,5.1,2.1
		c1.5,0.9,2.8,2.3,3.7,4.2s1.5,4.2,1.5,7c0,4.4-1.8,7.9-5.5,10.3s-8.3,3.7-13.8,3.7c-7.2,0-13.5-1.7-18.9-5.2l5.3-8.7
		C200.2,113,204.7,114.4,210.4,114.7z"/>
	<path class="st2" d="M252.1,110.5c2.7,2.7,5.9,4.1,9.6,4.1c3.7,0,7-1.4,9.7-4.1l7.4,7.4c-4.9,4.4-10.6,6.5-17.1,6.5
		c-6.7,0-12.6-2.3-17.6-6.9c-5-4.6-7.5-10.2-7.5-16.8s2.5-12.2,7.5-16.8c5-4.5,10.8-6.8,17.6-6.8c6.6,0,12.3,2.2,17.1,6.5l-7.4,7.4
		c-2.7-2.7-6-4.1-9.7-4.1c-3.7,0-7,1.4-9.6,4.1c-2.7,2.7-4,5.9-4,9.7C248.1,104.5,249.5,107.7,252.1,110.5z"/>
	<path class="st2" d="M298.1,123.1h-10.9V65.3h10.9v19.2h0.2c1.1-2,2.7-3.7,5-5.1c2.3-1.5,4.9-2.2,7.8-2.2c5.2,0,9.4,1.7,12.5,5.2
		c3.2,3.5,4.7,8.1,4.7,13.7v27h-10.9V96.9c0-2.7-0.9-5.1-2.8-7c-1.9-1.9-4.1-2.9-6.8-2.9c-2.7,0-5,1-6.9,2.9c-1.9,1.9-2.8,4.2-2.8,7
		V123.1z"/>
	<path class="st2" d="M385.3,100.7c0,1.5-0.2,3.1-0.6,4.9h-35.9c0.8,2.7,2.4,4.9,4.7,6.6c2.4,1.7,5,2.6,7.8,2.6
		c2.5,0,4.9-0.6,7.2-1.8c2.3-1.2,4-2.8,5.2-4.7l7.4,6.5c-2.3,2.9-5.1,5.2-8.6,6.9c-3.5,1.7-7.2,2.5-11.2,2.5
		c-6.8,0-12.5-2.3-17.2-6.8c-4.7-4.5-7.1-10.2-7.1-16.8c0-6.7,2.4-12.3,7.1-16.8s10.5-6.8,17.2-6.8c6.6,0,12.3,2.3,16.9,6.9
		C382.9,88.6,385.3,94.2,385.3,100.7z M348.9,96.4h24.7c-0.7-2.9-2.1-5.2-4.4-7.1c-2.3-1.8-4.9-2.8-7.9-2.8c-2.9,0-5.6,0.9-7.9,2.8
		C351,91.2,349.5,93.6,348.9,96.4z"/>
	<path class="st2" d="M430.2,123.1v-7.1h-0.2c-1.4,2.4-3.4,4.4-5.9,6c-2.5,1.6-5.5,2.5-8.9,2.5c-6.6,0-12.2-2.3-16.7-6.8
		c-4.6-4.5-6.9-10.1-6.9-16.9c0-6.7,2.3-12.3,6.9-16.8c4.6-4.5,10.2-6.8,16.7-6.8c6.1,0,11,2.6,14.9,7.8h0.2V65.3h10.9v57.8H430.2z
		 M430.2,100.7c0-3.8-1.3-7-4-9.7c-2.6-2.7-5.9-4-9.6-4c-3.8,0-7,1.3-9.6,4c-2.7,2.7-4,5.9-4,9.6c0,3.8,1.3,7.1,4,9.8
		c2.7,2.7,5.9,4,9.6,4c3.8,0,7-1.3,9.7-4S430.2,104.5,430.2,100.7z"/>
	<path class="st2" d="M481.7,78.5h10.9v44.6h-10.9v-6.8h-0.2c-1.2,2.4-2.9,4.3-5.1,5.8c-2.2,1.5-4.8,2.3-7.9,2.3
		c-5.1,0-9.3-1.8-12.5-5.3c-3.2-3.5-4.8-8.1-4.8-13.7v-27h10.9v26.2c0,2.7,0.9,5.1,2.8,7c1.9,1.9,4.2,2.9,6.9,2.9c2.7,0,5-1,6.9-2.9
		c1.9-1.9,2.8-4.2,2.8-7V78.5z"/>
	<path class="st2" d="M502.8,123.1V65.3h10.9v57.8H502.8z"/>
	<path class="st2" d="M570.6,100.7c0,1.5-0.2,3.1-0.6,4.9h-35.9c0.8,2.7,2.4,4.9,4.7,6.6c2.4,1.7,5,2.6,7.8,2.6
		c2.5,0,4.9-0.6,7.2-1.8s4-2.8,5.2-4.7l7.4,6.5c-2.3,2.9-5.1,5.2-8.6,6.9c-3.5,1.7-7.2,2.5-11.2,2.5c-6.8,0-12.5-2.3-17.2-6.8
		c-4.7-4.5-7.1-10.2-7.1-16.8c0-6.7,2.4-12.3,7.1-16.8s10.5-6.8,17.2-6.8c6.6,0,12.3,2.3,16.9,6.9S570.6,94.2,570.6,100.7z
		 M534.2,96.4h24.7c-0.7-2.9-2.1-5.2-4.4-7.1c-2.3-1.8-4.9-2.8-7.9-2.8c-2.9,0-5.6,0.9-7.9,2.8S534.9,93.6,534.2,96.4z"/>
</g>
</svg>
