<?xml version="1.0" encoding="utf-8"?>
<!-- Generator: Adobe Illustrator 26.1.0, SVG Export Plug-In . SVG Version: 6.00 Build 0)  -->
<svg version="1.1" id="Main" xmlns="http://www.w3.org/2000/svg" xmlns:xlink="http://www.w3.org/1999/xlink" x="0px" y="0px"
	 viewBox="0 0 619 192.6" style="enable-background:new 0 0 619 192.6;" xml:space="preserve">
<style type="text/css">
	.st0{display:none;fill:#FFFFFF;}
	.st1{fill:#04ADCE;}
	.st2{fill:#002830;}
	.st3{fill:#FFFFFF;}
	.st4{font-family:'UxumGrotesque-Bold';}
	.st5{font-size:90px;}
</style>
<path id="card" class="st0" d="M602.8,192.6H34.6C15.6,192.6,0,177.1,0,158V34.5C0,15.5,15.5,0,34.5,0h568.3
	c19,0,34.6,15.5,34.6,34.6v123.5C637.3,177.1,621.8,192.6,602.8,192.6z"/>
<g id="Logo">
	<circle id="background" class="st1" cx="95.1" cy="97.4" r="85"/>
	<path class="st2" d="M89.5,137.5l-20,8.6c-3.2,1.4-6.2,1.1-9.1-0.8c-2.9-1.9-4.3-4.5-4.3-7.9V75.5c0-2.6,0.9-4.9,2.8-6.7
		c1.9-1.9,4.1-2.8,6.7-2.8h47.7c2.6,0,4.9,0.9,6.7,2.8c1.9,1.9,2.8,4.1,2.8,6.7v61.8c0,3.4-1.4,6.1-4.3,7.9
		c-2.9,1.9-5.9,2.1-9.1,0.8L89.5,137.5z"/>
	<path class="st3" d="M132.4,137.5v-81h-62v-9.5h62c2.6,0,4.9,0.9,6.7,2.8c1.9,1.9,2.8,4.1,2.8,6.7v81H132.4z"/>
</g>
<text transform="matrix(1 0 0 1 191.1901 124.7448)" class="st1 st4 st5">bookmark</text>
</svg>
