<?xml version="1.0" encoding="utf-8"?>
<!-- Generator: Adobe Illustrator 22.1.0, SVG Export Plug-In . SVG Version: 6.00 Build 0)  -->
<svg version="1.1" id="Layer_1" xmlns="http://www.w3.org/2000/svg" xmlns:xlink="http://www.w3.org/1999/xlink" x="0px" y="0px"
	 viewBox="0 0 638.7 192.6" style="enable-background:new 0 0 638.7 192.6;" xml:space="preserve">
<style type="text/css">
	.st0{fill:#FFFFFF;}
	.st1{fill:#4C6672;}
	.st2{fill:#7EBAC8;}
</style>
<path class="st0" d="M625.4,192.6H13.3c-7.3,0-13.3-6-13.3-13.3v-166C0,6,6,0,13.3,0h612.1c7.3,0,13.3,6,13.3,13.3v166
	C638.7,186.6,632.7,192.6,625.4,192.6z"/>
<g id="Layer_2_1_">
	<g id="NMS">
		<circle class="st1" cx="95.7" cy="96.3" r="85"/>
		<path class="st0" d="M140.7,92.2c-5-0.8-5.5,3-6.2,6.7c-0.9,4.9-5,8-9.9,8.1c-5,0.1-9.5-2.9-10-7.8c-0.4-3.6,0.8-7.5,1.7-11.1
			c1.2-4.8,3.5-9.3,4-14.1c1-10.4-3.2-18.8-12.4-24.1c-9-5.1-18.2-4.7-26.6,1.4c-8.6,6.3-12.2,15.1-10,25.6c1,4.6,3.1,9,4.8,13.4
			c3.4,9.1-1.4,17.2-10.1,16.6c-5.1-0.3-8.3-3.3-9.6-9.6c-0.6-3.1-1.8-5.6-5.2-5.2c-3.6,0.4-4.5,3.3-4.1,6.6
			c0.1,1.2,0.3,2.4,0.7,3.6c2.6,8.5,8.7,12.7,18,14.6c-5.9,7.4-4.6,15.6-4.7,23.6c0,3.2,0.9,5.6,4.5,5.8c3.9,0.2,5-2.5,5.1-5.8
			c0.1-3.4,0-6.8,0.1-10.2c0.2-6.3,4.1-10.3,10.1-10.2c5.8,0.1,9.8,4.2,10,10.4c0.1,3.4,0,6.8,0,10.2c0,3.2,1.1,5.5,4.7,5.6
			c3.6,0.1,4.8-2.3,4.9-5.4c0.1-3.7-0.1-7.4,0.1-11.1c0.2-5.6,4.2-9.6,9.7-9.7c5.7-0.1,10,3.9,10.3,9.6c0.2,3.5,0,7.1,0,10.7
			c0,3.3,1,5.9,4.9,5.9c3.9-0.1,4.7-2.8,4.7-6.1c0-8,0.9-16.1-4.8-23.3c9.5-1.9,15.8-6.4,18.2-15.4C145,96.5,144.1,92.8,140.7,92.2z
			 M88.2,99.5c-2.7,0-4.9-2.8-4.9-6.4s2.2-6.4,4.9-6.4s4.9,2.8,4.9,6.4S90.9,99.5,88.2,99.5z M103.7,99.1c-2.7,0-4.9-2.8-4.9-6.4
			c0-3.5,2.2-6.4,4.9-6.4s4.9,2.8,4.9,6.4S106.4,99.1,103.7,99.1L103.7,99.1z"/>
	</g>
</g>
<g>
	<path class="st1" d="M203.4,123.9h-10.9V79.3h10.9v6.8h0.2c2.8-5.4,7.1-8.2,12.9-8.2c5.1,0,9.3,1.8,12.5,5.3
		c3.2,3.5,4.8,8.1,4.8,13.7v27h-10.9V97.7c0-2.7-1-5.1-2.9-7c-1.9-1.9-4.2-2.9-6.8-2.9c-2.7,0-5,1-6.9,2.9c-1.9,1.9-2.8,4.2-2.8,7
		V123.9z"/>
	<path class="st1" d="M281,123.9v-7.1h-0.2c-1.4,2.4-3.4,4.4-5.9,6c-2.5,1.6-5.5,2.5-8.9,2.5c-6.6,0-12.2-2.3-16.7-6.8
		c-4.6-4.5-6.9-10.1-6.9-16.9c0-6.7,2.3-12.3,6.9-16.8c4.6-4.5,10.2-6.8,16.7-6.8c6.1,0,11,2.6,14.9,7.8h0.2v-6.5H292v44.6H281z
		 M281,101.6c0-3.8-1.3-7-4-9.7c-2.6-2.7-5.9-4-9.6-4c-3.8,0-7,1.3-9.6,4c-2.7,2.7-4,5.9-4,9.6c0,3.8,1.3,7.1,4,9.8
		c2.7,2.7,5.9,4,9.6,4c3.8,0,7-1.3,9.7-4S281,105.4,281,101.6z"/>
	<path class="st1" d="M343.8,79.3l-17.3,44.6H316l-17.3-44.6H310l11.2,30.5h0.2l11.1-30.5H343.8z"/>
	<path class="st1" d="M351.3,74.1c-1.3-1.3-1.9-2.8-1.9-4.5c0-1.8,0.6-3.3,1.9-4.5c1.3-1.3,2.8-1.9,4.6-1.9s3.3,0.6,4.6,1.9
		c1.3,1.3,1.9,2.8,1.9,4.5c0,1.8-0.6,3.3-1.9,4.5c-1.3,1.3-2.8,1.9-4.6,1.9S352.6,75.3,351.3,74.1z M350.5,79.3h10.9v44.6h-10.9
		V79.3z"/>
	<path class="st1" d="M368.8,88.2v-8.9h4.1V69.2h10.9v10.1h7.6v8.9h-7.6v23.9c0,0.9,0.4,1.7,1.1,2.4c0.7,0.7,1.6,1,2.6,1
		c1.3,0,2.2-0.2,2.9-0.6l2.1,8.6c-2.2,1.1-4.9,1.7-8.1,1.7c-3.4,0-6.2-1.1-8.3-3.3c-2.1-2.2-3.2-5-3.2-8.5V88.2H368.8z"/>
	<path class="st1" d="M400.2,74.1c-1.3-1.3-1.9-2.8-1.9-4.5c0-1.8,0.6-3.3,1.9-4.5c1.3-1.3,2.8-1.9,4.6-1.9s3.3,0.6,4.6,1.9
		c1.3,1.3,1.9,2.8,1.9,4.5c0,1.8-0.6,3.3-1.9,4.5c-1.3,1.3-2.8,1.9-4.6,1.9S401.4,75.3,400.2,74.1z M399.3,79.3h10.9v44.6h-10.9
		V79.3z"/>
	<path class="st1" d="M457.5,123.9v-7.1h-0.2c-1.4,2.4-3.4,4.4-5.9,6c-2.5,1.6-5.5,2.5-8.9,2.5c-6.6,0-12.2-2.3-16.7-6.8
		c-4.6-4.5-6.9-10.1-6.9-16.9c0-6.7,2.3-12.3,6.9-16.8c4.6-4.5,10.2-6.8,16.7-6.8c6.1,0,11,2.6,14.9,7.8h0.2v-6.5h10.9v44.6H457.5z
		 M457.5,101.6c0-3.8-1.3-7-4-9.7c-2.6-2.7-5.9-4-9.6-4c-3.8,0-7,1.3-9.6,4c-2.7,2.7-4,5.9-4,9.6c0,3.8,1.3,7.1,4,9.8
		c2.7,2.7,5.9,4,9.6,4c3.8,0,7-1.3,9.7-4S457.5,105.4,457.5,101.6z"/>
	<path class="st2" d="M496.6,115.5c2.4,0.2,4.4-0.2,5.8-1s2.2-1.9,2.2-3.3c0-1.3-0.5-2.3-1.4-3.1c-1-0.8-2.2-1.3-3.7-1.6
		c-1.5-0.3-3.2-0.6-5.1-0.8c-1.8-0.2-3.7-0.6-5.5-1.1c-1.9-0.5-3.6-1.2-5.1-2c-1.5-0.9-2.8-2.2-3.7-4.1c-1-1.9-1.4-4.1-1.4-6.8
		c0-4.3,1.6-7.6,4.9-10.1c3.3-2.4,7.6-3.7,13.1-3.7c6.7,0,12.6,1.8,17.8,5.3l-4.8,8.2c-3.3-2.5-7.6-3.8-13-3.8c-4.6,0-6.9,1.3-6.9,4
		c0,1.3,0.5,2.3,1.5,3c1,0.7,2.2,1.2,3.7,1.5s3.2,0.5,5.1,0.7c1.9,0.2,3.8,0.6,5.6,1.1s3.6,1.2,5.1,2.1c1.5,0.9,2.8,2.3,3.7,4.2
		s1.5,4.2,1.5,7c0,4.4-1.8,7.9-5.5,10.3c-3.7,2.5-8.3,3.7-13.8,3.7c-7.2,0-13.5-1.7-18.9-5.2l5.3-8.7
		C486.4,113.8,490.9,115.2,496.6,115.5z"/>
	<path class="st2" d="M561.6,123.9v-7.1h-0.2c-1.4,2.4-3.4,4.4-5.9,6c-2.5,1.6-5.5,2.5-8.9,2.5c-6.6,0-12.2-2.3-16.7-6.8
		c-4.6-4.5-6.9-10.1-6.9-16.9c0-6.7,2.3-12.3,6.9-16.8c4.6-4.5,10.2-6.8,16.7-6.8c6.1,0,11,2.6,14.9,7.8h0.2V66.1h10.9v57.8H561.6z
		 M561.6,101.6c0-3.8-1.3-7-4-9.7c-2.6-2.7-5.9-4-9.6-4c-3.8,0-7,1.3-9.6,4c-2.7,2.7-4,5.9-4,9.6c0,3.8,1.3,7.1,4,9.8
		c2.7,2.7,5.9,4,9.6,4c3.8,0,7-1.3,9.7-4S561.6,105.4,561.6,101.6z"/>
	<path class="st2" d="M582.7,123.9V66.1h10.9v35.4l18-22.3h13.7l-18.5,22.3l18.5,22.3h-13.7l-18-22.3v22.3H582.7z"/>
</g>
</svg>
