<?xml version="1.0" encoding="utf-8"?>
<!-- Generator: Adobe Illustrator 26.1.0, SVG Export Plug-In . SVG Version: 6.00 Build 0)  -->
<svg version="1.1" id="Main" xmlns="http://www.w3.org/2000/svg" xmlns:xlink="http://www.w3.org/1999/xlink" x="0px" y="0px"
	 viewBox="0 0 585 192.6" style="enable-background:new 0 0 585 192.6;" xml:space="preserve">
<style type="text/css">
	.st0{display:none;fill:#FFFFFF;}
	.st1{fill:#04ADCE;}
	.st2{fill:#002830;}
	.st3{fill:#FFFFFF;}
	.st4{fill:#FDFFFF;}
	.st5{font-family:'UxumGrotesque-Bold';}
	.st6{font-size:90px;}
</style>
<path id="card" class="st0" d="M602.8,192.6H34.6C15.6,192.6,0,177.1,0,158V34.5C0,15.5,15.5,0,34.5,0h568.3
	c19,0,34.6,15.5,34.6,34.6v123.5C637.3,177.1,621.8,192.6,602.8,192.6z"/>
<g id="Logo">
	<circle id="background" class="st1" cx="95.1" cy="97.4" r="85"/>
	<g id="schedule_logo">
		<path class="st2" d="M150.1,99.7V63.1c0-1.9-1.6-3.5-3.5-3.5h-106c-1.9,0-3.5,1.6-3.5,3.5v70.5c0,1.9,1.6,3.5,3.5,3.5h58.5
			c5.8,8.7,15.9,14.4,27.2,14.1c16.8-0.5,30.5-14.2,30.8-31.1C157.3,112.4,154.6,105.3,150.1,99.7z M44.2,128V68.7
			c0-1.2,0.9-2.1,2.1-2.1H141c1.2,0,2.1,0.9,2.1,2.1v24.6c-5-3.4-11.1-5.3-17.6-5.3c-11.1,0-20.9,5.8-26.5,14.4
			c-3.4,6.3-3.3,6.7-3.3,6.7c-0.8,2.2-1.3,4.6-1.6,7c0,0-0.2,0.1-0.3,3.5c0,2.1,0.3,3.5,0.3,3.5c0.3,2.4,0.8,4.8,1.6,7H46.3
			C45.1,130.2,44.2,129.2,44.2,128z M126.3,144.2c-14.2,0.5-25.9-11.2-25.4-25.4c0.4-12.9,10.9-23.4,23.8-23.8
			c14.2-0.5,25.9,11.2,25.4,25.4C149.7,133.3,139.2,143.8,126.3,144.2z"/>
		<path class="st3" d="M139.6,116.1H129v-10.5c0-1.9-1.6-3.5-3.5-3.5s-3.5,1.6-3.5,3.5v14.1c0,1.9,1.6,3.5,3.5,3.5h14.1
			c1.9,0,3.5-1.6,3.5-3.5S141.5,116.1,139.6,116.1z"/>
		<path class="st3" d="M69,73.9h-7c-1.9,0-3.5,1.6-3.5,3.5s1.6,3.5,3.5,3.5h7c1.9,0,3.5-1.6,3.5-3.5S70.9,73.9,69,73.9z"/>
		<path class="st3" d="M69,88h-7c-1.9,0-3.5,1.6-3.5,3.5S60,95,62,95h7c1.9,0,3.5-1.6,3.5-3.5S70.9,88,69,88z"/>
		<path class="st3" d="M69,102h-7c-1.9,0-3.5,1.6-3.5,3.5s1.6,3.5,3.5,3.5h7c1.9,0,3.5-1.6,3.5-3.5S70.9,102,69,102z"/>
		<path class="st3" d="M90.3,80.9h7c1.9,0,3.5-1.6,3.5-3.5s-1.6-3.5-3.5-3.5h-7c-1.9,0-3.5,1.6-3.5,3.5S88.4,80.9,90.3,80.9z"/>
		<path class="st3" d="M90.3,95h7c1.9,0,3.5-1.6,3.5-3.5S99.3,88,97.4,88h-7c-1.9,0-3.5,1.6-3.5,3.5S88.4,95,90.3,95z"/>
		<path class="st3" d="M69,116.1h-7c-1.9,0-3.5,1.6-3.5,3.5s1.6,3.5,3.5,3.5h7c1.9,0,3.5-1.6,3.5-3.5S70.9,116.1,69,116.1z"/>
		<path class="st4" d="M118.5,80.9h7c1.9,0,3.5-1.6,3.5-3.5s-1.6-3.5-3.5-3.5h-7c-1.9,0-3.5,1.6-3.5,3.5S116.5,80.9,118.5,80.9z"/>
		<path class="st3" d="M90.3,109.1h5.3l1.5-3.1l1.8-3.5c-0.5-0.2-1-0.4-1.6-0.4h-7c-1.9,0-3.5,1.6-3.5,3.5S88.4,109.1,90.3,109.1z"
			/>
		<path class="st3" d="M90.3,123.1H94c-0.2-0.9-0.2-6.3,0-7h-3.7c-1.9,0-3.5,1.6-3.5,3.5S88.4,123.1,90.3,123.1z"/>
	</g>
</g>
<text transform="matrix(1 0 0 1 191.1901 124.7448)" class="st1 st5 st6">schedule</text>
</svg>
