<?xml version="1.0" encoding="utf-8"?>
<!-- Generator: Adobe Illustrator 26.1.0, SVG Export Plug-In . SVG Version: 6.00 Build 0)  -->
<svg version="1.1" id="Main" xmlns="http://www.w3.org/2000/svg" xmlns:xlink="http://www.w3.org/1999/xlink" x="0px" y="0px"
	 viewBox="0 0 460 192.6" style="enable-background:new 0 0 460 192.6;" xml:space="preserve">
<style type="text/css">
	.st0{fill:#04ADCE;}
	.st1{fill:#002830;}
	.st2{fill:#FFFFFF;}
	.st3{fill:#F8FEFF;}
	.st4{font-family:'UxumGrotesque-Bold';}
	.st5{font-size:90px;}
</style>
<g id="Logo">
	<circle id="background" class="st0" cx="95.1" cy="97.4" r="85"/>
	<g id="traffic_logo">
		<g>
			<path class="st1" d="M153.7,139.8c3.9-7,3.9-15.3,0.1-22.2l-39.2-69.8c-3.9-7-10.9-11.2-18.7-11.2S81,40.8,77.1,47.8l-39.2,69.9
				C34,124.7,34,133,38,140c3.9,6.9,10.9,11,18.7,11h78.2C142.7,151.1,149.7,146.9,153.7,139.8z M145.2,134.8
				c-2.2,3.9-6,6.2-10.3,6.2H56.6c-4.2,0-8.1-2.2-10.2-6c-2.2-3.8-2.2-8.4,0-12.3l39.2-69.8c2.1-3.8,5.9-6.1,10.2-6.1
				c4.3,0,8.1,2.3,10.2,6.1l39.2,69.8C147.3,126.4,147.3,131,145.2,134.8z"/>
			<path class="st2" d="M95.8,117c-3.4,0-6.2,2.9-6.2,6.4s2.8,6.4,6.2,6.4c3.3,0,6.2-2.9,6.1-6.3C102.1,119.9,99.2,117,95.8,117z"/>
			<path class="st3" d="M94.3,71.9c-3,0.9-4.8,3.7-4.8,7c0.2,2,0.3,4.1,0.4,6.1c0.4,7.7,0.8,15.3,1.3,23.1c0.2,2.6,2.1,4.5,4.7,4.5
				c2.5,0,4.5-2,4.7-4.7c0-1.6,0-3.1,0.2-4.7c0.3-5,0.6-9.9,0.8-14.9c0.2-3.2,0.4-6.4,0.6-9.7c0-1.2-0.2-2.2-0.6-3.2
				C100.2,72.6,97.2,71.2,94.3,71.9z"/>
		</g>
	</g>
</g>
<text transform="matrix(1 0 0 1 189.4794 124.7448)" class="st0 st4 st5">traffic</text>
</svg>
