<?xml version="1.0" encoding="utf-8"?>
<!-- Generator: Adobe Illustrator 26.2.0, SVG Export Plug-In . SVG Version: 6.00 Build 0)  -->
<svg version="1.1" id="Main" xmlns="http://www.w3.org/2000/svg" xmlns:xlink="http://www.w3.org/1999/xlink" x="0px" y="0px"
	 viewBox="0 0 439 192.6" style="enable-background:new 0 0 439 192.6;" xml:space="preserve">
<style type="text/css">
	.st0{display:none;fill:#FFFFFF;}
	.st1{fill:#4C6672;}
	.st2{display:none;}
	.st3{display:inline;}
	.st4{fill:#7EBAC8;}
	.st5{display:inline;fill:#FFFFFF;}
	.st6{display:inline;fill:none;stroke:#FFFFFF;stroke-width:2.5944;stroke-miterlimit:10;}
	.st7{display:inline;fill:none;stroke:#FFFFFF;stroke-width:3.3158;stroke-miterlimit:10;}
	.st8{display:inline;fill:#7EBAC8;}
	
		.st9{display:inline;fill:none;stroke:#FFFFFF;stroke-width:3.0621;stroke-linecap:round;stroke-miterlimit:10;stroke-dasharray:7.145;}
	.st10{display:inline;fill:#FDFFFF;}
	.st11{fill:#FFFFFF;}
	.st12{fill:#F8FEFF;}
	.st13{display:inline;fill:#4C6672;}
	.st14{fill:none;}
	.st15{font-family:'LucidaGrande-Bold';}
	.st16{font-size:77px;}
	.st17{display:none;fill:#7EBAC8;}
	.st18{font-family:'Kaleko105-Bold';}
	.st19{display:inline;fill:#A5CFD3;}
</style>
<path id="card" class="st0" d="M602.8,192.6H34.6c-19,0-34.6-15.5-34.6-34.6V34.5C0,15.5,15.5,0,34.5,0h568.3
	c19,0,34.6,15.5,34.6,34.6v123.5C637.3,177.1,621.8,192.6,602.8,192.6z"/>
<g id="Logo">
	<circle id="background" class="st1" cx="95.1" cy="97.4" r="85"/>
	<path id="octopus" class="st0" d="M140.7,92.2c-5-0.8-5.5,3-6.2,6.7c-0.9,4.9-5,8-9.9,8.1c-5,0.1-9.5-2.9-10-7.8
		c-0.4-3.6,0.8-7.5,1.7-11.1c1.2-4.8,3.5-9.3,4-14.1c1-10.4-3.2-18.8-12.4-24.1c-9-5.1-18.2-4.7-26.6,1.4
		c-8.6,6.3-12.2,15.1-10,25.6c1,4.6,3.1,9,4.8,13.4c3.4,9.1-1.4,17.2-10.1,16.6c-5.1-0.3-8.3-3.3-9.6-9.6c-0.6-3.1-1.8-5.6-5.2-5.2
		c-3.6,0.4-4.5,3.3-4.1,6.6c0.1,1.2,0.3,2.4,0.7,3.6c2.6,8.5,8.7,12.7,18,14.6c-5.9,7.4-4.6,15.6-4.7,23.6c0,3.2,0.9,5.6,4.5,5.8
		c3.9,0.2,5-2.5,5.1-5.8c0.1-3.4,0-6.8,0.1-10.2c0.2-6.3,4.1-10.3,10.1-10.2c5.8,0.1,9.8,4.2,10,10.4c0.1,3.4,0,6.8,0,10.2
		c0,3.2,1.1,5.5,4.7,5.6c3.6,0.1,4.8-2.3,4.9-5.4c0.1-3.7-0.1-7.4,0.1-11.1c0.2-5.6,4.2-9.6,9.7-9.7c5.7-0.1,10,3.9,10.3,9.6
		c0.2,3.5,0,7.1,0,10.7c0,3.3,1,5.9,4.9,5.9c3.9-0.1,4.7-2.8,4.7-6.1c0-8,0.9-16.1-4.8-23.3c9.5-1.9,15.8-6.4,18.2-15.4
		C145,96.5,144.1,92.8,140.7,92.2z M88.2,99.5c-2.7,0-4.9-2.8-4.9-6.4s2.2-6.4,4.9-6.4s4.9,2.8,4.9,6.4S90.9,99.5,88.2,99.5z
		 M103.7,99.1c-2.7,0-4.9-2.8-4.9-6.4c0-3.5,2.2-6.4,4.9-6.4s4.9,2.8,4.9,6.4S106.4,99.1,103.7,99.1L103.7,99.1z"/>
	<g id="expert_glasses" class="st2">
		<g class="st3">
			<g>
				<path class="st4" d="M114.8,92.1h-3c-0.4-3.8-3.7-6.5-7.5-6.2c-3.3,0.3-5.9,2.9-6.2,6.2h-4.3c-0.4-3.8-3.7-6.5-7.5-6.2
					c-3.3,0.3-5.9,2.9-6.2,6.2h-3c-0.3,0-0.6,0.2-0.7,0.6c-0.1,0.4,0.3,0.8,0.7,0.8h3c0.4,3.8,3.7,6.5,7.5,6.2
					c3.3-0.3,5.9-2.9,6.2-6.2h4.3c0.4,3.8,3.7,6.5,7.5,6.2c3.3-0.3,5.9-2.9,6.2-6.2h3c0.4,0,0.7-0.4,0.7-0.8
					C115.4,92.3,115.1,92.1,114.8,92.1z M87,98.3L87,98.3c-3.1,0-5.7-2.6-5.5-5.8c0.1-2.8,2.4-5.1,5.3-5.2c3.2-0.1,5.8,2.4,5.8,5.5
					C92.5,95.8,90,98.3,87,98.3z M105,98.3L105,98.3c-3.1,0-5.7-2.6-5.5-5.8c0.1-2.8,2.4-5.1,5.3-5.2c3.2-0.1,5.8,2.4,5.8,5.5
					C110.5,95.8,108,98.3,105,98.3z"/>
			</g>
		</g>
		<ellipse class="st5" cx="86.9" cy="92.8" rx="5.6" ry="5.5"/>
		<ellipse class="st5" cx="105" cy="92.7" rx="5.6" ry="5.5"/>
		<g class="st3">
			<g>
				<path class="st4" d="M87.6,88.4L87.6,88.4c-0.4,0-0.7,0.3-0.7,0.7s0.3,0.7,0.7,0.7c1.2,0,2.2,1,2.2,2.2c0,0.4,0.3,0.7,0.7,0.7
					s0.7-0.3,0.7-0.7C91.2,90.1,89.6,88.4,87.6,88.4z"/>
			</g>
		</g>
		<g class="st3">
			<g>
				<path class="st4" d="M105.6,88.4L105.6,88.4c-0.4,0-0.7,0.3-0.7,0.7s0.3,0.7,0.7,0.7c1.2,0,2.2,1,2.2,2.2c0,0.4,0.3,0.7,0.7,0.7
					s0.7-0.3,0.7-0.7C109.2,90.1,107.6,88.4,105.6,88.4z"/>
			</g>
		</g>
	</g>
	<g id="aroundme_logo" class="st2">
		<ellipse class="st6" cx="95.7" cy="127" rx="30" ry="8.4"/>
		<ellipse class="st7" cx="95.7" cy="127" rx="52.5" ry="14.7"/>
		<path class="st8" d="M95.7,44.6c-15.7,0-28.5,12.8-28.5,28.5c0,4.7,1.2,9.4,3.4,13.5l23.5,42.5c0.3,0.6,0.9,0.9,1.6,0.9
			s1.2-0.4,1.6-0.9l23.5-42.6c2.2-4.1,3.4-8.8,3.4-13.5C124.2,57.4,111.4,44.6,95.7,44.6z M95.7,87.3c-7.9,0-14.2-6.4-14.2-14.2
			s6.4-14.2,14.2-14.2s14.2,6.4,14.2,14.2S103.5,87.3,95.7,87.3z"/>
	</g>
	<g id="journey_logo" class="st2">
		<path class="st9" d="M56,156.9c0,0,88.8-16.4,80.9-37.4c-5.4-14.4-59.5-6.1-62-15.6C72.1,93.4,127,86.5,127,86.5"/>
		<path class="st8" d="M127.5,32.4c-10.2,0-18.5,8.3-18.5,18.5c0,3.1,0.8,6.1,2.2,8.8l15.3,27.6c0.2,0.4,0.6,0.6,1,0.6
			s0.8-0.2,1-0.6l15.3-27.6c1.4-2.7,2.2-5.7,2.2-8.8C146,40.7,137.7,32.4,127.5,32.4z M127.5,60.2c-5.1,0-9.2-4.1-9.2-9.2
			s4.1-9.2,9.2-9.2c5.1,0,9.2,4.1,9.2,9.2S132.6,60.2,127.5,60.2z"/>
		<path class="st8" d="M55.7,103.1c-10.2,0-18.5,8.3-18.5,18.5c0,3.1,0.8,6.1,2.2,8.8L54.7,158c0.2,0.4,0.6,0.6,1,0.6
			c0.4,0,0.8-0.2,1-0.6l15.3-27.6c1.4-2.7,2.2-5.7,2.2-8.8C74.2,111.4,65.9,103.1,55.7,103.1z M55.7,130.8c-5.1,0-9.2-4.1-9.2-9.2
			s4.1-9.2,9.2-9.2s9.2,4.1,9.2,9.2S60.8,130.8,55.7,130.8z"/>
	</g>
	<g id="schedule_logo" class="st2">
		<path class="st8" d="M150.1,99.7V63.1c0-1.9-1.6-3.5-3.5-3.5H40.6c-1.9,0-3.5,1.6-3.5,3.5v70.5c0,1.9,1.6,3.5,3.5,3.5h58.5
			c5.8,8.7,15.9,14.4,27.2,14.1c16.8-0.5,30.5-14.2,30.8-31.1C157.3,112.4,154.6,105.3,150.1,99.7z M44.2,128V68.7
			c0-1.2,0.9-2.1,2.1-2.1H141c1.2,0,2.1,0.9,2.1,2.1v24.6c-5-3.4-11.1-5.3-17.6-5.3c-11.1,0-20.9,5.8-26.5,14.4
			c-3.4,6.3-3.3,6.7-3.3,6.7c-0.8,2.2-1.3,4.6-1.6,7c0,0-0.2,0.1-0.3,3.5c0,2.1,0.3,3.5,0.3,3.5c0.3,2.4,0.8,4.8,1.6,7H46.3
			C45.1,130.2,44.2,129.2,44.2,128z M126.3,144.2c-14.2,0.5-25.9-11.2-25.4-25.4c0.4-12.9,10.9-23.4,23.8-23.8
			c14.2-0.5,25.9,11.2,25.4,25.4C149.7,133.3,139.2,143.8,126.3,144.2z"/>
		<path class="st5" d="M139.6,116.1H129v-10.5c0-1.9-1.6-3.5-3.5-3.5s-3.5,1.6-3.5,3.5v14.1c0,1.9,1.6,3.5,3.5,3.5h14.1
			c1.9,0,3.5-1.6,3.5-3.5S141.5,116.1,139.6,116.1z"/>
		<path class="st5" d="M69,73.9h-7c-1.9,0-3.5,1.6-3.5,3.5s1.6,3.5,3.5,3.5h7c1.9,0,3.5-1.6,3.5-3.5S70.9,73.9,69,73.9z"/>
		<path class="st5" d="M69,88h-7c-1.9,0-3.5,1.6-3.5,3.5S60,95,62,95h7c1.9,0,3.5-1.6,3.5-3.5S70.9,88,69,88z"/>
		<path class="st5" d="M69,102h-7c-1.9,0-3.5,1.6-3.5,3.5s1.6,3.5,3.5,3.5h7c1.9,0,3.5-1.6,3.5-3.5S70.9,102,69,102z"/>
		<path class="st5" d="M90.3,80.9h7c1.9,0,3.5-1.6,3.5-3.5s-1.6-3.5-3.5-3.5h-7c-1.9,0-3.5,1.6-3.5,3.5S88.4,80.9,90.3,80.9z"/>
		<path class="st5" d="M90.3,95h7c1.9,0,3.5-1.6,3.5-3.5S99.3,88,97.4,88h-7c-1.9,0-3.5,1.6-3.5,3.5S88.4,95,90.3,95z"/>
		<path class="st5" d="M69,116.1h-7c-1.9,0-3.5,1.6-3.5,3.5s1.6,3.5,3.5,3.5h7c1.9,0,3.5-1.6,3.5-3.5S70.9,116.1,69,116.1z"/>
		<path class="st10" d="M118.5,80.9h7c1.9,0,3.5-1.6,3.5-3.5s-1.6-3.5-3.5-3.5h-7c-1.9,0-3.5,1.6-3.5,3.5S116.5,80.9,118.5,80.9z"/>
		<path class="st5" d="M90.3,109.1h5.3l1.5-3.1l1.8-3.5c-0.5-0.2-1-0.4-1.6-0.4h-7c-1.9,0-3.5,1.6-3.5,3.5S88.4,109.1,90.3,109.1z"
			/>
		<path class="st5" d="M90.3,123.1H94c-0.2-0.9-0.2-6.3,0-7h-3.7c-1.9,0-3.5,1.6-3.5,3.5S88.4,123.1,90.3,123.1z"/>
	</g>
	<g id="traffic_logo">
		<g>
			<path class="st4" d="M153.7,139.8c3.9-7,3.9-15.3,0.1-22.2l-39.2-69.8c-3.9-7-10.9-11.2-18.7-11.2S81,40.8,77.1,47.8l-39.2,69.9
				C34,124.7,34,133,38,140c3.9,6.9,10.9,11,18.7,11h78.2C142.7,151.1,149.7,146.9,153.7,139.8z M145.2,134.8
				c-2.2,3.9-6,6.2-10.3,6.2H56.6c-4.2,0-8.1-2.2-10.2-6c-2.2-3.8-2.2-8.4,0-12.3l39.2-69.8c2.1-3.8,5.9-6.1,10.2-6.1
				c4.3,0,8.1,2.3,10.2,6.1l39.2,69.8C147.3,126.4,147.3,131,145.2,134.8z"/>
			<path class="st11" d="M95.8,117c-3.4,0-6.2,2.9-6.2,6.4c0,3.5,2.8,6.4,6.2,6.4c3.3,0,6.2-2.9,6.1-6.3
				C102.1,119.9,99.2,117,95.8,117z"/>
			<path class="st12" d="M94.3,71.9c-3,0.9-4.8,3.7-4.8,7c0.2,2,0.3,4.1,0.4,6.1c0.4,7.7,0.8,15.3,1.3,23.1c0.2,2.6,2.1,4.5,4.7,4.5
				c2.5,0,4.5-2,4.7-4.7c0-1.6,0-3.1,0.2-4.7c0.3-5,0.6-9.9,0.8-14.9c0.2-3.2,0.4-6.4,0.6-9.7c0-1.2-0.2-2.2-0.6-3.2
				C100.2,72.6,97.2,71.2,94.3,71.9z"/>
		</g>
	</g>
</g>
<g id="navitia_sdk" class="st2">
	<path class="st13" d="M203.4,123.9h-10.9V79.3h10.9v6.8h0.2c2.8-5.4,7.1-8.2,12.9-8.2c5.1,0,9.3,1.8,12.5,5.3
		c3.2,3.5,4.8,8.1,4.8,13.7v27h-10.9V97.7c0-2.7-1-5.1-2.9-7c-1.9-1.9-4.2-2.9-6.8-2.9c-2.7,0-5,1-6.9,2.9c-1.9,1.9-2.8,4.2-2.8,7
		V123.9z"/>
	<path class="st13" d="M281,123.9v-7.1h-0.2c-1.4,2.4-3.4,4.4-5.9,6c-2.5,1.6-5.5,2.5-8.9,2.5c-6.6,0-12.2-2.3-16.7-6.8
		c-4.6-4.5-6.9-10.1-6.9-16.9c0-6.7,2.3-12.3,6.9-16.8c4.6-4.5,10.2-6.8,16.7-6.8c6.1,0,11,2.6,14.9,7.8h0.2v-6.5H292v44.6H281z
		 M281,101.6c0-3.8-1.3-7-4-9.7c-2.6-2.7-5.9-4-9.6-4c-3.8,0-7,1.3-9.6,4c-2.7,2.7-4,5.9-4,9.6c0,3.8,1.3,7.1,4,9.8
		c2.7,2.7,5.9,4,9.6,4c3.8,0,7-1.3,9.7-4S281,105.4,281,101.6z"/>
	<path class="st13" d="M343.8,79.3l-17.3,44.6H316l-17.3-44.6H310l11.2,30.5h0.2l11.1-30.5H343.8z"/>
	<path class="st13" d="M351.3,74.1c-1.3-1.3-1.9-2.8-1.9-4.5c0-1.8,0.6-3.3,1.9-4.5c1.3-1.3,2.8-1.9,4.6-1.9s3.3,0.6,4.6,1.9
		c1.3,1.3,1.9,2.8,1.9,4.5c0,1.8-0.6,3.3-1.9,4.5c-1.3,1.3-2.8,1.9-4.6,1.9S352.6,75.3,351.3,74.1z M350.5,79.3h10.9v44.6h-10.9
		V79.3z"/>
	<path class="st13" d="M368.8,88.2v-8.9h4.1V69.2h10.9v10.1h7.6v8.9h-7.6v23.9c0,0.9,0.4,1.7,1.1,2.4c0.7,0.7,1.6,1,2.6,1
		c1.3,0,2.2-0.2,2.9-0.6l2.1,8.6c-2.2,1.1-4.9,1.7-8.1,1.7c-3.4,0-6.2-1.1-8.3-3.3c-2.1-2.2-3.2-5-3.2-8.5V88.2H368.8z"/>
	<path class="st13" d="M400.2,74.1c-1.3-1.3-1.9-2.8-1.9-4.5c0-1.8,0.6-3.3,1.9-4.5c1.3-1.3,2.8-1.9,4.6-1.9s3.3,0.6,4.6,1.9
		c1.3,1.3,1.9,2.8,1.9,4.5c0,1.8-0.6,3.3-1.9,4.5c-1.3,1.3-2.8,1.9-4.6,1.9S401.4,75.3,400.2,74.1z M399.3,79.3h10.9v44.6h-10.9
		V79.3z"/>
	<path class="st13" d="M457.5,123.9v-7.1h-0.2c-1.4,2.4-3.4,4.4-5.9,6c-2.5,1.6-5.5,2.5-8.9,2.5c-6.6,0-12.2-2.3-16.7-6.8
		c-4.6-4.5-6.9-10.1-6.9-16.9c0-6.7,2.3-12.3,6.9-16.8c4.6-4.5,10.2-6.8,16.7-6.8c6.1,0,11,2.6,14.9,7.8h0.2v-6.5h10.9v44.6H457.5z
		 M457.5,101.6c0-3.8-1.3-7-4-9.7c-2.6-2.7-5.9-4-9.6-4c-3.8,0-7,1.3-9.6,4c-2.7,2.7-4,5.9-4,9.6c0,3.8,1.3,7.1,4,9.8
		c2.7,2.7,5.9,4,9.6,4c3.8,0,7-1.3,9.7-4S457.5,105.4,457.5,101.6z"/>
	<path class="st8" d="M496.6,115.5c2.4,0.2,4.4-0.2,5.8-1s2.2-1.9,2.2-3.3c0-1.3-0.5-2.3-1.4-3.1c-1-0.8-2.2-1.3-3.7-1.6
		c-1.5-0.3-3.2-0.6-5.1-0.8c-1.8-0.2-3.7-0.6-5.5-1.1c-1.9-0.5-3.6-1.2-5.1-2c-1.5-0.9-2.8-2.2-3.7-4.1c-1-1.9-1.4-4.1-1.4-6.8
		c0-4.3,1.6-7.6,4.9-10.1c3.3-2.4,7.6-3.7,13.1-3.7c6.7,0,12.6,1.8,17.8,5.3l-4.8,8.2c-3.3-2.5-7.6-3.8-13-3.8c-4.6,0-6.9,1.3-6.9,4
		c0,1.3,0.5,2.3,1.5,3c1,0.7,2.2,1.2,3.7,1.5s3.2,0.5,5.1,0.7c1.9,0.2,3.8,0.6,5.6,1.1s3.6,1.2,5.1,2.1c1.5,0.9,2.8,2.3,3.7,4.2
		s1.5,4.2,1.5,7c0,4.4-1.8,7.9-5.5,10.3c-3.7,2.5-8.3,3.7-13.8,3.7c-7.2,0-13.5-1.7-18.9-5.2l5.3-8.7
		C486.4,113.8,490.9,115.2,496.6,115.5z"/>
	<path class="st8" d="M561.6,123.9v-7.1h-0.2c-1.4,2.4-3.4,4.4-5.9,6c-2.5,1.6-5.5,2.5-8.9,2.5c-6.6,0-12.2-2.3-16.7-6.8
		c-4.6-4.5-6.9-10.1-6.9-16.9c0-6.7,2.3-12.3,6.9-16.8c4.6-4.5,10.2-6.8,16.7-6.8c6.1,0,11,2.6,14.9,7.8h0.2V66.1h10.9v57.8H561.6z
		 M561.6,101.6c0-3.8-1.3-7-4-9.7c-2.6-2.7-5.9-4-9.6-4c-3.8,0-7,1.3-9.6,4c-2.7,2.7-4,5.9-4,9.6c0,3.8,1.3,7.1,4,9.8
		c2.7,2.7,5.9,4,9.6,4c3.8,0,7-1.3,9.7-4S561.6,105.4,561.6,101.6z"/>
	<path class="st8" d="M582.7,123.9V66.1h10.9v35.4l18-22.3h13.7l-18.5,22.3l18.5,22.3h-13.7l-18-22.3v22.3H582.7z"/>
</g>
<rect x="187.4" y="66" class="st14" width="469.9" height="76"/>
<text id="traffic_text" transform="matrix(1 0 0 1 187.3956 125.3973)" class="st4 st15 st16">traffic</text>
<rect x="188.4" y="65.3" class="st14" width="469.9" height="76"/>
<text id="schedule_text" transform="matrix(1 0 0 1 188.3956 119.9902)" class="st17 st18 st16">schedule</text>
<rect x="188.4" y="65.3" class="st14" width="469.9" height="76"/>
<text id="aroundme_text" transform="matrix(1 0 0 1 188.3956 119.9902)" class="st2"><tspan x="0" y="0" class="st8 st18 st16">around</tspan><tspan x="238.7" y="0" class="st19 st18 st16">me</tspan></text>
</svg>
